<?xml version="1.0" encoding="UTF-8" standalone="no"?>
<!DOCTYPE svg PUBLIC "-//W3C//DTD SVG 1.1//EN" "http://www.w3.org/Graphics/SVG/1.1/DTD/svg11.dtd">
<svg width="100%" height="100%" viewBox="0 0 750 1334" version="1.1" xmlns="http://www.w3.org/2000/svg" xmlns:xlink="http://www.w3.org/1999/xlink" xml:space="preserve" xmlns:serif="http://www.serif.com/" style="fill-rule:evenodd;clip-rule:evenodd;stroke-linecap:round;stroke-linejoin:round;stroke-miterlimit:1.5;">
    <g transform="matrix(1.01005,0,0,1,-0.00224795,0)">
        <rect x="0.224" y="1.688" width="745.817" height="1334.32" style="fill:rgb(127,128,128);stroke:rgb(128,128,128);stroke-width:0.99px;"/>
    </g>
    <circle cx="175.887" cy="631.645" r="10.132" style="fill:rgb(155,124,85);"/>
    <circle cx="247.795" cy="666.119" r="5.487" style="fill:rgb(155,124,85);"/>
    <circle cx="257.309" cy="932.226" r="10.22" style="fill:rgb(155,124,85);"/>
    <circle cx="227.136" cy="1019.08" r="4.489" style="fill:rgb(155,124,85);"/>
    <circle cx="583.555" cy="981.68" r="7.787" style="fill:rgb(155,124,85);"/>
    <circle cx="558.961" cy="920.19" r="14.338" style="fill:rgb(155,124,85);"/>
    <circle cx="526.905" cy="865.393" r="10.675" style="fill:rgb(155,124,85);"/>
    <circle cx="476.222" cy="838.344" r="6.283" style="fill:rgb(155,124,85);"/>
    <circle cx="432.886" cy="801.938" r="8.491" style="fill:rgb(155,124,85);"/>
    <circle cx="385.257" cy="757.1" r="8.939" style="fill:rgb(155,124,85);"/>
    <circle cx="390.564" cy="706.116" r="17.455" style="fill:rgb(155,124,85);"/>
    <circle cx="406.809" cy="624.993" r="6.154" style="fill:rgb(155,124,85);"/>
    <circle cx="439.145" cy="586.122" r="8.48" style="fill:rgb(155,124,85);"/>
    <circle cx="453.721" cy="477.195" r="6.378" style="fill:rgb(155,124,85);"/>
    <circle cx="431.799" cy="397.634" r="6.493" style="fill:rgb(155,124,85);"/>
    <circle cx="382.331" cy="351.038" r="15.422" style="fill:rgb(155,124,85);"/>
    <circle cx="297.183" cy="264.079" r="12.956" style="fill:rgb(155,124,85);"/>
    <circle cx="229.637" cy="255.762" r="8.561" style="fill:rgb(155,124,85);"/>
    <circle cx="185.568" cy="319.837" r="8.686" style="fill:rgb(155,124,85);"/>
    <circle cx="212.44" cy="417.808" r="15.72" style="fill:rgb(155,124,85);"/>
    <circle cx="318.786" cy="537.721" r="20.408" style="fill:rgb(155,124,85);"/>
    <circle cx="338.245" cy="653.358" r="11.388" style="fill:rgb(155,124,85);"/>
    <circle cx="287.002" cy="785.872" r="21.066" style="fill:rgb(155,124,85);"/>
    <circle cx="217.699" cy="888.957" r="15.547" style="fill:rgb(155,124,85);"/>
    <circle cx="208.162" cy="1006.64" r="14.563" style="fill:rgb(155,124,85);"/>
    <circle cx="266.792" cy="1143.6" r="22.597" style="fill:rgb(155,124,85);"/>
    <circle cx="429.205" cy="1154.39" r="24.197" style="fill:rgb(155,124,85);"/>
    <circle cx="610.023" cy="1122.81" r="12.268" style="fill:rgb(155,124,85);"/>
    <circle cx="691.375" cy="977.53" r="12.714" style="fill:rgb(155,124,85);"/>
    <circle cx="715.613" cy="834.986" r="13.633" style="fill:rgb(155,124,85);"/>
    <circle cx="635.995" cy="635.611" r="9.362" style="fill:rgb(155,124,85);"/>
    <circle cx="607.993" cy="523.248" r="8.977" style="fill:rgb(155,124,85);"/>
    <circle cx="566.783" cy="381.715" r="25.172" style="fill:rgb(155,124,85);"/>
    <circle cx="474.423" cy="149.33" r="22.344" style="fill:rgb(155,124,85);"/>
    <circle cx="341.444" cy="127.562" r="20.671" style="fill:rgb(155,124,85);"/>
    <circle cx="226.727" cy="146.912" r="17.356" style="fill:rgb(155,124,85);"/>
    <circle cx="136.685" cy="252.562" r="4.985" style="fill:rgb(155,124,85);"/>
    <circle cx="156.508" cy="325.984" r="19.171" style="fill:rgb(155,124,85);"/>
    <circle cx="271.365" cy="481.512" r="14.765" style="fill:rgb(155,124,85);"/>
    <circle cx="406.115" cy="680.091" r="41.256" style="fill:rgb(155,124,85);"/>
    <circle cx="364.981" cy="865.033" r="36.003" style="fill:rgb(155,124,85);"/>
    <circle cx="226.45" cy="1037.65" r="42.45" style="fill:rgb(155,124,85);"/>
    <circle cx="205.368" cy="1131.05" r="19.298" style="fill:rgb(155,124,85);"/>
    <circle cx="370.808" cy="1235.77" r="28.339" style="fill:rgb(155,124,85);"/>
    <circle cx="563.706" cy="1190.56" r="12.858" style="fill:rgb(155,124,85);"/>
    <circle cx="618.999" cy="1013.64" r="20.062" style="fill:rgb(155,124,85);"/>
    <circle cx="553.039" cy="702.433" r="17.577" style="fill:rgb(155,124,85);"/>
    <circle cx="364.33" cy="501.532" r="13.188" style="fill:rgb(155,124,85);"/>
    <circle cx="122.458" cy="385.646" r="7.334" style="fill:rgb(155,124,85);"/>
    <circle cx="114.941" cy="279.115" r="7.428" style="fill:rgb(155,124,85);"/>
    <circle cx="165.672" cy="138.756" r="6.534" style="fill:rgb(155,124,85);"/>
    <circle cx="98.194" cy="717.061" r="6.699" style="fill:rgb(155,124,85);"/>
    <circle cx="144.74" cy="770.405" r="10.986" style="fill:rgb(155,124,85);"/>
    <circle cx="174.559" cy="830.207" r="8.556" style="fill:rgb(155,124,85);"/>
    <circle cx="153.326" cy="918.205" r="8.651" style="fill:rgb(155,124,85);"/>
    <circle cx="83.791" cy="979.298" r="8.23" style="fill:rgb(155,124,85);"/>
    <circle cx="61.956" cy="1045.95" r="11.719" style="fill:rgb(155,124,85);"/>
    <circle cx="56.338" cy="1119.72" r="6.996" style="fill:rgb(155,124,85);"/>
    <circle cx="48.204" cy="43.545" r="9.806" style="fill:rgb(155,124,85);"/>
    <circle cx="65.336" cy="82.767" r="3.481" style="fill:rgb(155,124,85);"/>
    <circle cx="63.079" cy="140.337" r="10.575" style="fill:rgb(155,124,85);"/>
    <circle cx="46.866" cy="201.828" r="4.032" style="fill:rgb(155,124,85);"/>
    <circle cx="68.112" cy="226.207" r="4.612" style="fill:rgb(155,124,85);"/>
    <circle cx="76.789" cy="255.68" r="5.355" style="fill:rgb(155,124,85);"/>
    <circle cx="65.375" cy="301.919" r="9.869" style="fill:rgb(155,124,85);"/>
    <circle cx="54.821" cy="354.323" r="7.215" style="fill:rgb(155,124,85);"/>
    <circle cx="51.216" cy="387.533" r="4.23" style="fill:rgb(155,124,85);"/>
    <circle cx="61.348" cy="422.287" r="4.842" style="fill:rgb(155,124,85);"/>
    <circle cx="86.546" cy="450.945" r="7.964" style="fill:rgb(155,124,85);"/>
    <circle cx="111.171" cy="485.619" r="3.025" style="fill:rgb(155,124,85);"/>
    <circle cx="106.351" cy="527.626" r="3.907" style="fill:rgb(155,124,85);"/>
    <circle cx="51.616" cy="585.641" r="5.211" style="fill:rgb(155,124,85);"/>
    <circle cx="71.038" cy="623.583" r="5.464" style="fill:rgb(155,124,85);"/>
    <circle cx="108.527" cy="667.943" r="5.967" style="fill:rgb(155,124,85);"/>
    <circle cx="72.44" cy="719.174" r="4.389" style="fill:rgb(155,124,85);"/>
    <circle cx="59.041" cy="774.983" r="4.067" style="fill:rgb(155,124,85);"/>
    <circle cx="76.961" cy="821.666" r="13.248" style="fill:rgb(155,124,85);"/>
    <circle cx="96.077" cy="878.767" r="5.384" style="fill:rgb(155,124,85);"/>
    <circle cx="88.222" cy="930.609" r="9.691" style="fill:rgb(155,124,85);"/>
    <circle cx="66.107" cy="1015.47" r="11.816" style="fill:rgb(155,124,85);"/>
    <circle cx="86.337" cy="1098.09" r="12.007" style="fill:rgb(155,124,85);"/>
    <circle cx="81.506" cy="1187.82" r="9.722" style="fill:rgb(155,124,85);"/>
    <circle cx="137.169" cy="56.619" r="6.813" style="fill:rgb(155,124,85);"/>
    <circle cx="138.294" cy="122.188" r="7.741" style="fill:rgb(155,124,85);"/>
    <circle cx="163.727" cy="186.199" r="16.774" style="fill:rgb(155,124,85);"/>
    <circle cx="201.965" cy="270.694" r="14.439" style="fill:rgb(155,124,85);"/>
    <circle cx="224.643" cy="341.31" r="10.461" style="fill:rgb(155,124,85);"/>
    <circle cx="211.191" cy="411.705" r="4.801" style="fill:rgb(155,124,85);"/>
    <circle cx="193.492" cy="470.615" r="6.162" style="fill:rgb(155,124,85);"/>
    <circle cx="180.371" cy="523.909" r="10.649" style="fill:rgb(155,124,85);"/>
    <circle cx="175.86" cy="624.982" r="11.504" style="fill:rgb(155,124,85);"/>
    <circle cx="190.372" cy="768.044" r="11.288" style="fill:rgb(155,124,85);"/>
    <circle cx="188.16" cy="875.365" r="5.938" style="fill:rgb(155,124,85);"/>
    <circle cx="151.592" cy="953.142" r="17.655" style="fill:rgb(155,124,85);"/>
    <circle cx="195.116" cy="1079.48" r="37.299" style="fill:rgb(155,124,85);"/>
    <circle cx="187.074" cy="1259.84" r="18.669" style="fill:rgb(155,124,85);"/>
    <circle cx="234.902" cy="1298.77" r="3.293" style="fill:rgb(155,124,85);"/>
    <circle cx="307.699" cy="51.815" r="4.376" style="fill:rgb(155,124,85);"/>
    <circle cx="335.92" cy="75.727" r="3.064" style="fill:rgb(155,124,85);"/>
    <circle cx="316.754" cy="115.163" r="8.108" style="fill:rgb(155,124,85);"/>
    <g transform="matrix(2.18232,0,0,2.18232,-371.644,-198.568)">
        <circle cx="316.99" cy="170.603" r="2.655" style="fill:rgb(155,124,85);"/>
    </g>
    <circle cx="355.884" cy="241.571" r="7.969" style="fill:rgb(155,124,85);"/>
    <circle cx="337.594" cy="309.787" r="10.459" style="fill:rgb(155,124,85);"/>
    <circle cx="318.285" cy="365.137" r="3.593" style="fill:rgb(155,124,85);"/>
    <circle cx="320.29" cy="397.086" r="3.136" style="fill:rgb(155,124,85);"/>
    <circle cx="332.1" cy="446.91" r="7.087" style="fill:rgb(155,124,85);"/>
    <circle cx="344.912" cy="496.944" r="6.52" style="fill:rgb(155,124,85);"/>
    <circle cx="333.492" cy="544.418" r="4.165" style="fill:rgb(155,124,85);"/>
    <circle cx="306.27" cy="599.222" r="8.054" style="fill:rgb(155,124,85);"/>
    <circle cx="297.322" cy="677.317" r="7.495" style="fill:rgb(155,124,85);"/>
    <circle cx="303.068" cy="749.84" r="5.22" style="fill:rgb(155,124,85);"/>
    <circle cx="322.599" cy="804.368" r="15.62" style="fill:rgb(155,124,85);"/>
    <circle cx="335.581" cy="907.995" r="3.904" style="fill:rgb(155,124,85);"/>
    <circle cx="347.037" cy="950.633" r="7.643" style="fill:rgb(155,124,85);"/>
    <circle cx="367.669" cy="1022.96" r="11.782" style="fill:rgb(155,124,85);"/>
    <circle cx="361.639" cy="1102.92" r="4.1" style="fill:rgb(155,124,85);"/>
    <circle cx="411.218" cy="29.438" r="6.245" style="fill:rgb(155,124,85);"/>
    <circle cx="504.56" cy="73.209" r="6.864" style="fill:rgb(155,124,85);"/>
    <circle cx="492.82" cy="127.372" r="18.234" style="fill:rgb(155,124,85);"/>
    <circle cx="464.92" cy="218.28" r="9.275" style="fill:rgb(155,124,85);"/>
    <circle cx="469.799" cy="285.049" r="4.363" style="fill:rgb(155,124,85);"/>
    <circle cx="472.499" cy="307.756" r="2.648" style="fill:rgb(155,124,85);"/>
    <circle cx="485.922" cy="347.358" r="10.895" style="fill:rgb(155,124,85);"/>
    <circle cx="511.806" cy="426.588" r="5.09" style="fill:rgb(155,124,85);"/>
    <circle cx="524.589" cy="501.234" r="9.37" style="fill:rgb(155,124,85);"/>
    <circle cx="528.734" cy="592.776" r="10.014" style="fill:rgb(155,124,85);"/>
    <circle cx="507.877" cy="682.764" r="7.083" style="fill:rgb(155,124,85);"/>
    <circle cx="533.862" cy="796.272" r="9.477" style="fill:rgb(155,124,85);"/>
    <circle cx="543.379" cy="900.145" r="10.369" style="fill:rgb(155,124,85);"/>
    <circle cx="497.113" cy="1041.61" r="19.951" style="fill:rgb(155,124,85);"/>
    <circle cx="493.186" cy="1292.52" r="16.324" style="fill:rgb(155,124,85);"/>
    <circle cx="595.371" cy="59.894" r="2.668" style="fill:rgb(155,124,85);"/>
    <circle cx="556.071" cy="109.343" r="4.212" style="fill:rgb(155,124,85);"/>
    <circle cx="537.085" cy="131.021" r="5.34" style="fill:rgb(155,124,85);"/>
    <circle cx="551.658" cy="179.055" r="3.554" style="fill:rgb(155,124,85);"/>
    <circle cx="592.774" cy="226.982" r="7.981" style="fill:rgb(155,124,85);"/>
    <circle cx="641.711" cy="273.966" r="5.337" style="fill:rgb(155,124,85);"/>
    <circle cx="650.527" cy="302.951" r="5.431" style="fill:rgb(155,124,85);"/>
    <circle cx="626.114" cy="394.152" r="11.742" style="fill:rgb(155,124,85);"/>
    <g transform="matrix(3.65929,0,0,3.65929,-1634.82,-1129.66)">
        <circle cx="610.797" cy="428.758" r="3.959" style="fill:rgb(155,124,85);"/>
    </g>
    <circle cx="575.564" cy="485.538" r="5.318" style="fill:rgb(155,124,85);"/>
    <circle cx="597.064" cy="544.95" r="15.276" style="fill:rgb(155,124,85);"/>
    <circle cx="667.667" cy="29.996" r="3.544" style="fill:rgb(155,124,85);"/>
    <circle cx="703.159" cy="77.207" r="11.1" style="fill:rgb(155,124,85);"/>
    <circle cx="719.099" cy="128.599" r="3.586" style="fill:rgb(155,124,85);"/>
    <circle cx="700.725" cy="170.713" r="7.172" style="fill:rgb(155,124,85);"/>
    <circle cx="666.471" cy="210.508" r="11.991" style="fill:rgb(155,124,85);"/>
    <circle cx="636.926" cy="246.155" r="5.883" style="fill:rgb(155,124,85);"/>
    <circle cx="650.393" cy="297.304" r="13.405" style="fill:rgb(155,124,85);"/>
    <circle cx="671.664" cy="385.949" r="11.397" style="fill:rgb(155,124,85);"/>
    <circle cx="689.53" cy="441.801" r="11.293" style="fill:rgb(155,124,85);"/>
    <circle cx="664.395" cy="537.156" r="14.939" style="fill:rgb(155,124,85);"/>
    <circle cx="684.844" cy="627.739" r="5.827" style="fill:rgb(155,124,85);"/>
    <circle cx="239.378" cy="486.958" r="8.97" style="fill:rgb(155,124,85);"/>
</svg>
