<?xml version="1.0" encoding="UTF-8" standalone="no"?><!DOCTYPE svg PUBLIC "-//W3C//DTD SVG 1.1//EN" "http://www.w3.org/Graphics/SVG/1.1/DTD/svg11.dtd"><svg width="100%" height="100%" viewBox="0 0 1334 750" version="1.1" xmlns="http://www.w3.org/2000/svg" xmlns:xlink="http://www.w3.org/1999/xlink" xml:space="preserve" xmlns:serif="http://www.serif.com/" style="fill-rule:evenodd;clip-rule:evenodd;stroke-linejoin:round;stroke-miterlimit:2;"><rect x="0" y="0" width="1334" height="750"/><g><rect x="0" y="0" width="40" height="20" style="fill:#cb7452;"/><rect x="60" y="0" width="40" height="20" style="fill:#cb7452;"/><rect x="120" y="0" width="40" height="20" style="fill:#cb7452;"/><rect x="240" y="0" width="40" height="20" style="fill:#cb7452;"/><rect x="300" y="0" width="40" height="20" style="fill:#cb7452;"/><rect x="360" y="0" width="40" height="20" style="fill:#cb7452;"/><rect x="180" y="0" width="40" height="20" style="fill:#cb7452;"/><rect x="420" y="-0" width="40" height="20" style="fill:#cb7452;"/><rect x="480" y="-0" width="40" height="20" style="fill:#cb7452;"/><rect x="540" y="-0" width="40" height="20" style="fill:#cb7452;"/><rect x="660" y="-0" width="40" height="20" style="fill:#cb7452;"/><rect x="720" y="-0" width="40" height="20" style="fill:#cb7452;"/><rect x="780" y="-0" width="40" height="20" style="fill:#cb7452;"/><rect x="600" y="-0" width="40" height="20" style="fill:#cb7452;"/><rect x="840" y="0" width="40" height="20" style="fill:#cb7452;"/><rect x="900" y="0" width="40" height="20" style="fill:#cb7452;"/><rect x="960" y="0" width="40" height="20" style="fill:#cb7452;"/><rect x="1080" y="0" width="40" height="20" style="fill:#cb7452;"/><rect x="1140" y="0" width="40" height="20" style="fill:#cb7452;"/><rect x="1200" y="0" width="40" height="20" style="fill:#cb7452;"/><rect x="1260" y="0" width="40" height="20" style="fill:#cb7452;"/><rect x="1320" y="0" width="40" height="20" style="fill:#cb7452;"/><rect x="1020" y="0" width="40" height="20" style="fill:#cb7452;"/></g><g><rect x="20" y="30" width="40" height="20" style="fill:#cb7452;"/><rect x="80" y="30" width="40" height="20" style="fill:#cb7452;"/><rect x="140" y="30" width="40" height="20" style="fill:#cb7452;"/><rect x="260" y="30" width="40" height="20" style="fill:#cb7452;"/><rect x="320" y="30" width="40" height="20" style="fill:#cb7452;"/><rect x="380" y="30" width="40" height="20" style="fill:#cb7452;"/><rect x="200" y="30" width="40" height="20" style="fill:#cb7452;"/><rect x="440" y="30" width="40" height="20" style="fill:#cb7452;"/><rect x="500" y="30" width="40" height="20" style="fill:#cb7452;"/><rect x="560" y="30" width="40" height="20" style="fill:#cb7452;"/><rect x="680" y="30" width="40" height="20" style="fill:#cb7452;"/><rect x="740" y="30" width="40" height="20" style="fill:#cb7452;"/><rect x="800" y="30" width="40" height="20" style="fill:#cb7452;"/><rect x="620" y="30" width="40" height="20" style="fill:#cb7452;"/><rect x="860" y="30" width="40" height="20" style="fill:#cb7452;"/><rect x="920" y="30" width="40" height="20" style="fill:#cb7452;"/><rect x="980" y="30" width="40" height="20" style="fill:#cb7452;"/><rect x="1100" y="30" width="40" height="20" style="fill:#cb7452;"/><rect x="1160" y="30" width="40" height="20" style="fill:#cb7452;"/><rect x="1220" y="30" width="40" height="20" style="fill:#cb7452;"/><rect x="1280" y="30" width="40" height="20" style="fill:#cb7452;"/><rect x="-40" y="30" width="40" height="20" style="fill:#cb7452;"/><rect x="1040" y="30" width="40" height="20" style="fill:#cb7452;"/></g><g><rect x="-0" y="60" width="40" height="20" style="fill:#cb7452;"/><rect x="60" y="60" width="40" height="20" style="fill:#cb7452;"/><rect x="120" y="60" width="40" height="20" style="fill:#cb7452;"/><rect x="240" y="60" width="40" height="20" style="fill:#cb7452;"/><rect x="300" y="60" width="40" height="20" style="fill:#cb7452;"/><rect x="360" y="60" width="40" height="20" style="fill:#cb7452;"/><rect x="180" y="60" width="40" height="20" style="fill:#cb7452;"/><rect x="420" y="60" width="40" height="20" style="fill:#cb7452;"/><rect x="480" y="60" width="40" height="20" style="fill:#cb7452;"/><rect x="540" y="60" width="40" height="20" style="fill:#cb7452;"/><rect x="660" y="60" width="40" height="20" style="fill:#cb7452;"/><rect x="720" y="60" width="40" height="20" style="fill:#cb7452;"/><rect x="780" y="60" width="40" height="20" style="fill:#cb7452;"/><rect x="600" y="60" width="40" height="20" style="fill:#cb7452;"/><rect x="840" y="60" width="40" height="20" style="fill:#cb7452;"/><rect x="900" y="60" width="40" height="20" style="fill:#cb7452;"/><rect x="960" y="60" width="40" height="20" style="fill:#cb7452;"/><rect x="1080" y="60" width="40" height="20" style="fill:#cb7452;"/><rect x="1140" y="60" width="40" height="20" style="fill:#cb7452;"/><rect x="1200" y="60" width="40" height="20" style="fill:#cb7452;"/><rect x="1260" y="60" width="40" height="20" style="fill:#cb7452;"/><rect x="1320" y="60" width="40" height="20" style="fill:#cb7452;"/><rect x="1020" y="60" width="40" height="20" style="fill:#cb7452;"/></g><g><rect x="20" y="90" width="40" height="20" style="fill:#cb7452;"/><rect x="80" y="90" width="40" height="20" style="fill:#cb7452;"/><rect x="140" y="90" width="40" height="20" style="fill:#cb7452;"/><rect x="260" y="90" width="40" height="20" style="fill:#cb7452;"/><rect x="320" y="90" width="40" height="20" style="fill:#cb7452;"/><rect x="380" y="90" width="40" height="20" style="fill:#cb7452;"/><rect x="200" y="90" width="40" height="20" style="fill:#cb7452;"/><rect x="440" y="90" width="40" height="20" style="fill:#cb7452;"/><rect x="500" y="90" width="40" height="20" style="fill:#cb7452;"/><rect x="560" y="90" width="40" height="20" style="fill:#cb7452;"/><rect x="680" y="90" width="40" height="20" style="fill:#cb7452;"/><rect x="740" y="90" width="40" height="20" style="fill:#cb7452;"/><rect x="800" y="90" width="40" height="20" style="fill:#cb7452;"/><rect x="620" y="90" width="40" height="20" style="fill:#cb7452;"/><rect x="860" y="90" width="40" height="20" style="fill:#cb7452;"/><rect x="920" y="90" width="40" height="20" style="fill:#cb7452;"/><rect x="980" y="90" width="40" height="20" style="fill:#cb7452;"/><rect x="1100" y="90" width="40" height="20" style="fill:#cb7452;"/><rect x="1160" y="90" width="40" height="20" style="fill:#cb7452;"/><rect x="1220" y="90" width="40" height="20" style="fill:#cb7452;"/><rect x="1280" y="90" width="40" height="20" style="fill:#cb7452;"/><rect x="-40" y="90" width="40" height="20" style="fill:#cb7452;"/><rect x="1040" y="90" width="40" height="20" style="fill:#cb7452;"/></g><g><rect x="0" y="125" width="40" height="20" style="fill:#cb7452;"/><rect x="60" y="125" width="40" height="20" style="fill:#cb7452;"/><rect x="120" y="125" width="40" height="20" style="fill:#cb7452;"/><rect x="240" y="125" width="40" height="20" style="fill:#cb7452;"/><rect x="300" y="125" width="40" height="20" style="fill:#cb7452;"/><rect x="360" y="125" width="40" height="20" style="fill:#cb7452;"/><rect x="180" y="125" width="40" height="20" style="fill:#cb7452;"/><rect x="420" y="125" width="40" height="20" style="fill:#cb7452;"/><rect x="480" y="125" width="40" height="20" style="fill:#cb7452;"/><rect x="540" y="125" width="40" height="20" style="fill:#cb7452;"/><rect x="660" y="125" width="40" height="20" style="fill:#cb7452;"/><rect x="720" y="125" width="40" height="20" style="fill:#cb7452;"/><rect x="780" y="125" width="40" height="20" style="fill:#cb7452;"/><rect x="600" y="125" width="40" height="20" style="fill:#cb7452;"/><rect x="840" y="125" width="40" height="20" style="fill:#cb7452;"/><rect x="900" y="125" width="40" height="20" style="fill:#cb7452;"/><rect x="960" y="125" width="40" height="20" style="fill:#cb7452;"/><rect x="1080" y="125" width="40" height="20" style="fill:#cb7452;"/><rect x="1140" y="125" width="40" height="20" style="fill:#cb7452;"/><rect x="1200" y="125" width="40" height="20" style="fill:#cb7452;"/><rect x="1260" y="125" width="40" height="20" style="fill:#cb7452;"/><rect x="1320" y="125" width="40" height="20" style="fill:#cb7452;"/><rect x="1020" y="125" width="40" height="20" style="fill:#cb7452;"/></g><g><rect x="20" y="155" width="40" height="20" style="fill:#cb7452;"/><rect x="80" y="155" width="40" height="20" style="fill:#cb7452;"/><rect x="140" y="155" width="40" height="20" style="fill:#cb7452;"/><rect x="260" y="155" width="40" height="20" style="fill:#cb7452;"/><rect x="320" y="155" width="40" height="20" style="fill:#cb7452;"/><rect x="380" y="155" width="40" height="20" style="fill:#cb7452;"/><rect x="200" y="155" width="40" height="20" style="fill:#cb7452;"/><rect x="440" y="155" width="40" height="20" style="fill:#cb7452;"/><rect x="500" y="155" width="40" height="20" style="fill:#cb7452;"/><rect x="560" y="155" width="40" height="20" style="fill:#cb7452;"/><rect x="680" y="155" width="40" height="20" style="fill:#cb7452;"/><rect x="740" y="155" width="40" height="20" style="fill:#cb7452;"/><rect x="800" y="155" width="40" height="20" style="fill:#cb7452;"/><rect x="620" y="155" width="40" height="20" style="fill:#cb7452;"/><rect x="860" y="155" width="40" height="20" style="fill:#cb7452;"/><rect x="920" y="155" width="40" height="20" style="fill:#cb7452;"/><rect x="980" y="155" width="40" height="20" style="fill:#cb7452;"/><rect x="1100" y="155" width="40" height="20" style="fill:#cb7452;"/><rect x="1160" y="155" width="40" height="20" style="fill:#cb7452;"/><rect x="1220" y="155" width="40" height="20" style="fill:#cb7452;"/><rect x="1280" y="155" width="40" height="20" style="fill:#cb7452;"/><rect x="-40" y="155" width="40" height="20" style="fill:#cb7452;"/><rect x="1040" y="155" width="40" height="20" style="fill:#cb7452;"/></g><g><rect x="-0" y="185" width="40" height="20" style="fill:#cb7452;"/><rect x="60" y="185" width="40" height="20" style="fill:#cb7452;"/><rect x="120" y="185" width="40" height="20" style="fill:#cb7452;"/><rect x="240" y="185" width="40" height="20" style="fill:#cb7452;"/><rect x="300" y="185" width="40" height="20" style="fill:#cb7452;"/><rect x="360" y="185" width="40" height="20" style="fill:#cb7452;"/><rect x="180" y="185" width="40" height="20" style="fill:#cb7452;"/><rect x="420" y="185" width="40" height="20" style="fill:#cb7452;"/><rect x="480" y="185" width="40" height="20" style="fill:#cb7452;"/><rect x="540" y="185" width="40" height="20" style="fill:#cb7452;"/><rect x="660" y="185" width="40" height="20" style="fill:#cb7452;"/><rect x="720" y="185" width="40" height="20" style="fill:#cb7452;"/><rect x="780" y="185" width="40" height="20" style="fill:#cb7452;"/><rect x="600" y="185" width="40" height="20" style="fill:#cb7452;"/><rect x="840" y="185" width="40" height="20" style="fill:#cb7452;"/><rect x="900" y="185" width="40" height="20" style="fill:#cb7452;"/><rect x="960" y="185" width="40" height="20" style="fill:#cb7452;"/><rect x="1080" y="185" width="40" height="20" style="fill:#cb7452;"/><rect x="1140" y="185" width="40" height="20" style="fill:#cb7452;"/><rect x="1200" y="185" width="40" height="20" style="fill:#cb7452;"/><rect x="1260" y="185" width="40" height="20" style="fill:#cb7452;"/><rect x="1320" y="185" width="40" height="20" style="fill:#cb7452;"/><rect x="1020" y="185" width="40" height="20" style="fill:#cb7452;"/></g><g><rect x="20" y="215" width="40" height="20" style="fill:#cb7452;"/><rect x="80" y="215" width="40" height="20" style="fill:#cb7452;"/><rect x="140" y="215" width="40" height="20" style="fill:#cb7452;"/><rect x="260" y="215" width="40" height="20" style="fill:#cb7452;"/><rect x="320" y="215" width="40" height="20" style="fill:#cb7452;"/><rect x="380" y="215" width="40" height="20" style="fill:#cb7452;"/><rect x="200" y="215" width="40" height="20" style="fill:#cb7452;"/><rect x="440" y="215" width="40" height="20" style="fill:#cb7452;"/><rect x="500" y="215" width="40" height="20" style="fill:#cb7452;"/><rect x="560" y="215" width="40" height="20" style="fill:#cb7452;"/><rect x="680" y="215" width="40" height="20" style="fill:#cb7452;"/><rect x="740" y="215" width="40" height="20" style="fill:#cb7452;"/><rect x="800" y="215" width="40" height="20" style="fill:#cb7452;"/><rect x="620" y="215" width="40" height="20" style="fill:#cb7452;"/><rect x="860" y="215" width="40" height="20" style="fill:#cb7452;"/><rect x="920" y="215" width="40" height="20" style="fill:#cb7452;"/><rect x="980" y="215" width="40" height="20" style="fill:#cb7452;"/><rect x="1100" y="215" width="40" height="20" style="fill:#cb7452;"/><rect x="1160" y="215" width="40" height="20" style="fill:#cb7452;"/><rect x="1220" y="215" width="40" height="20" style="fill:#cb7452;"/><rect x="1280" y="215" width="40" height="20" style="fill:#cb7452;"/><rect x="-40" y="215" width="40" height="20" style="fill:#cb7452;"/><rect x="1040" y="215" width="40" height="20" style="fill:#cb7452;"/></g><g><rect x="0" y="250" width="40" height="20" style="fill:#cb7452;"/><rect x="60" y="250" width="40" height="20" style="fill:#cb7452;"/><rect x="120" y="250" width="40" height="20" style="fill:#cb7452;"/><rect x="240" y="250" width="40" height="20" style="fill:#cb7452;"/><rect x="300" y="250" width="40" height="20" style="fill:#cb7452;"/><rect x="360" y="250" width="40" height="20" style="fill:#cb7452;"/><rect x="180" y="250" width="40" height="20" style="fill:#cb7452;"/><rect x="420" y="250" width="40" height="20" style="fill:#cb7452;"/><rect x="480" y="250" width="40" height="20" style="fill:#cb7452;"/><rect x="540" y="250" width="40" height="20" style="fill:#cb7452;"/><rect x="660" y="250" width="40" height="20" style="fill:#cb7452;"/><rect x="720" y="250" width="40" height="20" style="fill:#cb7452;"/><rect x="780" y="250" width="40" height="20" style="fill:#cb7452;"/><rect x="600" y="250" width="40" height="20" style="fill:#cb7452;"/><rect x="840" y="250" width="40" height="20" style="fill:#cb7452;"/><rect x="900" y="250" width="40" height="20" style="fill:#cb7452;"/><rect x="960" y="250" width="40" height="20" style="fill:#cb7452;"/><rect x="1080" y="250" width="40" height="20" style="fill:#cb7452;"/><rect x="1140" y="250" width="40" height="20" style="fill:#cb7452;"/><rect x="1200" y="250" width="40" height="20" style="fill:#cb7452;"/><rect x="1260" y="250" width="40" height="20" style="fill:#cb7452;"/><rect x="1320" y="250" width="40" height="20" style="fill:#cb7452;"/><rect x="1020" y="250" width="40" height="20" style="fill:#cb7452;"/></g><g><rect x="20" y="280" width="40" height="20" style="fill:#cb7452;"/><rect x="80" y="280" width="40" height="20" style="fill:#cb7452;"/><rect x="140" y="280" width="40" height="20" style="fill:#cb7452;"/><rect x="260" y="280" width="40" height="20" style="fill:#cb7452;"/><rect x="320" y="280" width="40" height="20" style="fill:#cb7452;"/><rect x="380" y="280" width="40" height="20" style="fill:#cb7452;"/><rect x="200" y="280" width="40" height="20" style="fill:#cb7452;"/><rect x="440" y="280" width="40" height="20" style="fill:#cb7452;"/><rect x="500" y="280" width="40" height="20" style="fill:#cb7452;"/><rect x="560" y="280" width="40" height="20" style="fill:#cb7452;"/><rect x="680" y="280" width="40" height="20" style="fill:#cb7452;"/><rect x="740" y="280" width="40" height="20" style="fill:#cb7452;"/><rect x="800" y="280" width="40" height="20" style="fill:#cb7452;"/><rect x="620" y="280" width="40" height="20" style="fill:#cb7452;"/><rect x="860" y="280" width="40" height="20" style="fill:#cb7452;"/><rect x="920" y="280" width="40" height="20" style="fill:#cb7452;"/><rect x="980" y="280" width="40" height="20" style="fill:#cb7452;"/><rect x="1100" y="280" width="40" height="20" style="fill:#cb7452;"/><rect x="1160" y="280" width="40" height="20" style="fill:#cb7452;"/><rect x="1220" y="280" width="40" height="20" style="fill:#cb7452;"/><rect x="1280" y="280" width="40" height="20" style="fill:#cb7452;"/><rect x="-40" y="280" width="40" height="20" style="fill:#cb7452;"/><rect x="1040" y="280" width="40" height="20" style="fill:#cb7452;"/></g><g><rect x="-0" y="310" width="40" height="20" style="fill:#cb7452;"/><rect x="60" y="310" width="40" height="20" style="fill:#cb7452;"/><rect x="120" y="310" width="40" height="20" style="fill:#cb7452;"/><rect x="240" y="310" width="40" height="20" style="fill:#cb7452;"/><rect x="300" y="310" width="40" height="20" style="fill:#cb7452;"/><rect x="360" y="310" width="40" height="20" style="fill:#cb7452;"/><rect x="180" y="310" width="40" height="20" style="fill:#cb7452;"/><rect x="420" y="310" width="40" height="20" style="fill:#cb7452;"/><rect x="480" y="310" width="40" height="20" style="fill:#cb7452;"/><rect x="540" y="310" width="40" height="20" style="fill:#cb7452;"/><rect x="660" y="310" width="40" height="20" style="fill:#cb7452;"/><rect x="720" y="310" width="40" height="20" style="fill:#cb7452;"/><rect x="780" y="310" width="40" height="20" style="fill:#cb7452;"/><rect x="600" y="310" width="40" height="20" style="fill:#cb7452;"/><rect x="840" y="310" width="40" height="20" style="fill:#cb7452;"/><rect x="900" y="310" width="40" height="20" style="fill:#cb7452;"/><rect x="960" y="310" width="40" height="20" style="fill:#cb7452;"/><rect x="1080" y="310" width="40" height="20" style="fill:#cb7452;"/><rect x="1140" y="310" width="40" height="20" style="fill:#cb7452;"/><rect x="1200" y="310" width="40" height="20" style="fill:#cb7452;"/><rect x="1260" y="310" width="40" height="20" style="fill:#cb7452;"/><rect x="1320" y="310" width="40" height="20" style="fill:#cb7452;"/><rect x="1020" y="310" width="40" height="20" style="fill:#cb7452;"/></g><g><rect x="20" y="340" width="40" height="20" style="fill:#cb7452;"/><rect x="80" y="340" width="40" height="20" style="fill:#cb7452;"/><rect x="140" y="340" width="40" height="20" style="fill:#cb7452;"/><rect x="260" y="340" width="40" height="20" style="fill:#cb7452;"/><rect x="320" y="340" width="40" height="20" style="fill:#cb7452;"/><rect x="380" y="340" width="40" height="20" style="fill:#cb7452;"/><rect x="200" y="340" width="40" height="20" style="fill:#cb7452;"/><rect x="440" y="340" width="40" height="20" style="fill:#cb7452;"/><rect x="500" y="340" width="40" height="20" style="fill:#cb7452;"/><rect x="560" y="340" width="40" height="20" style="fill:#cb7452;"/><rect x="680" y="340" width="40" height="20" style="fill:#cb7452;"/><rect x="740" y="340" width="40" height="20" style="fill:#cb7452;"/><rect x="800" y="340" width="40" height="20" style="fill:#cb7452;"/><rect x="620" y="340" width="40" height="20" style="fill:#cb7452;"/><rect x="860" y="340" width="40" height="20" style="fill:#cb7452;"/><rect x="920" y="340" width="40" height="20" style="fill:#cb7452;"/><rect x="980" y="340" width="40" height="20" style="fill:#cb7452;"/><rect x="1100" y="340" width="40" height="20" style="fill:#cb7452;"/><rect x="1160" y="340" width="40" height="20" style="fill:#cb7452;"/><rect x="1220" y="340" width="40" height="20" style="fill:#cb7452;"/><rect x="1280" y="340" width="40" height="20" style="fill:#cb7452;"/><rect x="-40" y="340" width="40" height="20" style="fill:#cb7452;"/><rect x="1040" y="340" width="40" height="20" style="fill:#cb7452;"/></g><g><rect x="0" y="375" width="40" height="20" style="fill:#cb7452;"/><rect x="60" y="375" width="40" height="20" style="fill:#cb7452;"/><rect x="120" y="375" width="40" height="20" style="fill:#cb7452;"/><rect x="240" y="375" width="40" height="20" style="fill:#cb7452;"/><rect x="300" y="375" width="40" height="20" style="fill:#cb7452;"/><rect x="360" y="375" width="40" height="20" style="fill:#cb7452;"/><rect x="180" y="375" width="40" height="20" style="fill:#cb7452;"/><rect x="420" y="375" width="40" height="20" style="fill:#cb7452;"/><rect x="480" y="375" width="40" height="20" style="fill:#cb7452;"/><rect x="540" y="375" width="40" height="20" style="fill:#cb7452;"/><rect x="660" y="375" width="40" height="20" style="fill:#cb7452;"/><rect x="720" y="375" width="40" height="20" style="fill:#cb7452;"/><rect x="780" y="375" width="40" height="20" style="fill:#cb7452;"/><rect x="600" y="375" width="40" height="20" style="fill:#cb7452;"/><rect x="840" y="375" width="40" height="20" style="fill:#cb7452;"/><rect x="900" y="375" width="40" height="20" style="fill:#cb7452;"/><rect x="960" y="375" width="40" height="20" style="fill:#cb7452;"/><rect x="1080" y="375" width="40" height="20" style="fill:#cb7452;"/><rect x="1140" y="375" width="40" height="20" style="fill:#cb7452;"/><rect x="1200" y="375" width="40" height="20" style="fill:#cb7452;"/><rect x="1260" y="375" width="40" height="20" style="fill:#cb7452;"/><rect x="1320" y="375" width="40" height="20" style="fill:#cb7452;"/><rect x="1020" y="375" width="40" height="20" style="fill:#cb7452;"/></g><g><rect x="20" y="405" width="40" height="20" style="fill:#cb7452;"/><rect x="80" y="405" width="40" height="20" style="fill:#cb7452;"/><rect x="140" y="405" width="40" height="20" style="fill:#cb7452;"/><rect x="260" y="405" width="40" height="20" style="fill:#cb7452;"/><rect x="320" y="405" width="40" height="20" style="fill:#cb7452;"/><rect x="380" y="405" width="40" height="20" style="fill:#cb7452;"/><rect x="200" y="405" width="40" height="20" style="fill:#cb7452;"/><rect x="440" y="405" width="40" height="20" style="fill:#cb7452;"/><rect x="500" y="405" width="40" height="20" style="fill:#cb7452;"/><rect x="560" y="405" width="40" height="20" style="fill:#cb7452;"/><rect x="680" y="405" width="40" height="20" style="fill:#cb7452;"/><rect x="740" y="405" width="40" height="20" style="fill:#cb7452;"/><rect x="800" y="405" width="40" height="20" style="fill:#cb7452;"/><rect x="620" y="405" width="40" height="20" style="fill:#cb7452;"/><rect x="860" y="405" width="40" height="20" style="fill:#cb7452;"/><rect x="920" y="405" width="40" height="20" style="fill:#cb7452;"/><rect x="980" y="405" width="40" height="20" style="fill:#cb7452;"/><rect x="1100" y="405" width="40" height="20" style="fill:#cb7452;"/><rect x="1160" y="405" width="40" height="20" style="fill:#cb7452;"/><rect x="1220" y="405" width="40" height="20" style="fill:#cb7452;"/><rect x="1280" y="405" width="40" height="20" style="fill:#cb7452;"/><rect x="-40" y="405" width="40" height="20" style="fill:#cb7452;"/><rect x="1040" y="405" width="40" height="20" style="fill:#cb7452;"/></g><g><rect x="-0" y="435" width="40" height="20" style="fill:#cb7452;"/><rect x="60" y="435" width="40" height="20" style="fill:#cb7452;"/><rect x="120" y="435" width="40" height="20" style="fill:#cb7452;"/><rect x="240" y="435" width="40" height="20" style="fill:#cb7452;"/><rect x="300" y="435" width="40" height="20" style="fill:#cb7452;"/><rect x="360" y="435" width="40" height="20" style="fill:#cb7452;"/><rect x="180" y="435" width="40" height="20" style="fill:#cb7452;"/><rect x="420" y="435" width="40" height="20" style="fill:#cb7452;"/><rect x="480" y="435" width="40" height="20" style="fill:#cb7452;"/><rect x="540" y="435" width="40" height="20" style="fill:#cb7452;"/><rect x="660" y="435" width="40" height="20" style="fill:#cb7452;"/><rect x="720" y="435" width="40" height="20" style="fill:#cb7452;"/><rect x="780" y="435" width="40" height="20" style="fill:#cb7452;"/><rect x="600" y="435" width="40" height="20" style="fill:#cb7452;"/><rect x="840" y="435" width="40" height="20" style="fill:#cb7452;"/><rect x="900" y="435" width="40" height="20" style="fill:#cb7452;"/><rect x="960" y="435" width="40" height="20" style="fill:#cb7452;"/><rect x="1080" y="435" width="40" height="20" style="fill:#cb7452;"/><rect x="1140" y="435" width="40" height="20" style="fill:#cb7452;"/><rect x="1200" y="435" width="40" height="20" style="fill:#cb7452;"/><rect x="1260" y="435" width="40" height="20" style="fill:#cb7452;"/><rect x="1320" y="435" width="40" height="20" style="fill:#cb7452;"/><rect x="1020" y="435" width="40" height="20" style="fill:#cb7452;"/></g><g><rect x="20" y="465" width="40" height="20" style="fill:#cb7452;"/><rect x="80" y="465" width="40" height="20" style="fill:#cb7452;"/><rect x="140" y="465" width="40" height="20" style="fill:#cb7452;"/><rect x="260" y="465" width="40" height="20" style="fill:#cb7452;"/><rect x="320" y="465" width="40" height="20" style="fill:#cb7452;"/><rect x="380" y="465" width="40" height="20" style="fill:#cb7452;"/><rect x="200" y="465" width="40" height="20" style="fill:#cb7452;"/><rect x="440" y="465" width="40" height="20" style="fill:#cb7452;"/><rect x="500" y="465" width="40" height="20" style="fill:#cb7452;"/><rect x="560" y="465" width="40" height="20" style="fill:#cb7452;"/><rect x="680" y="465" width="40" height="20" style="fill:#cb7452;"/><rect x="740" y="465" width="40" height="20" style="fill:#cb7452;"/><rect x="800" y="465" width="40" height="20" style="fill:#cb7452;"/><rect x="620" y="465" width="40" height="20" style="fill:#cb7452;"/><rect x="860" y="465" width="40" height="20" style="fill:#cb7452;"/><rect x="920" y="465" width="40" height="20" style="fill:#cb7452;"/><rect x="980" y="465" width="40" height="20" style="fill:#cb7452;"/><rect x="1100" y="465" width="40" height="20" style="fill:#cb7452;"/><rect x="1160" y="465" width="40" height="20" style="fill:#cb7452;"/><rect x="1220" y="465" width="40" height="20" style="fill:#cb7452;"/><rect x="1280" y="465" width="40" height="20" style="fill:#cb7452;"/><rect x="-40" y="465" width="40" height="20" style="fill:#cb7452;"/><rect x="1040" y="465" width="40" height="20" style="fill:#cb7452;"/></g><g><rect x="-26" y="500" width="40" height="20" style="fill:#cb7452;"/><rect x="34" y="500" width="40" height="20" style="fill:#cb7452;"/><rect x="94" y="500" width="40" height="20" style="fill:#cb7452;"/><rect x="214" y="500" width="40" height="20" style="fill:#cb7452;"/><rect x="274" y="500" width="40" height="20" style="fill:#cb7452;"/><rect x="334" y="500" width="40" height="20" style="fill:#cb7452;"/><rect x="154" y="500" width="40" height="20" style="fill:#cb7452;"/><rect x="394" y="500" width="40" height="20" style="fill:#cb7452;"/><rect x="454" y="500" width="40" height="20" style="fill:#cb7452;"/><rect x="514" y="500" width="40" height="20" style="fill:#cb7452;"/><rect x="634" y="500" width="40" height="20" style="fill:#cb7452;"/><rect x="694" y="500" width="40" height="20" style="fill:#cb7452;"/><rect x="754" y="500" width="40" height="20" style="fill:#cb7452;"/><rect x="574" y="500" width="40" height="20" style="fill:#cb7452;"/><rect x="814" y="500" width="40" height="20" style="fill:#cb7452;"/><rect x="874" y="500" width="40" height="20" style="fill:#cb7452;"/><rect x="934" y="500" width="40" height="20" style="fill:#cb7452;"/><rect x="1054" y="500" width="40" height="20" style="fill:#cb7452;"/><rect x="1114" y="500" width="40" height="20" style="fill:#cb7452;"/><rect x="1174" y="500" width="40" height="20" style="fill:#cb7452;"/><rect x="1234" y="500" width="40" height="20" style="fill:#cb7452;"/><rect x="1294" y="500" width="40" height="20" style="fill:#cb7452;"/><rect x="994" y="500" width="40" height="20" style="fill:#cb7452;"/></g><g><rect x="-6" y="530" width="40" height="20" style="fill:#cb7452;"/><rect x="54" y="530" width="40" height="20" style="fill:#cb7452;"/><rect x="114" y="530" width="40" height="20" style="fill:#cb7452;"/><rect x="234" y="530" width="40" height="20" style="fill:#cb7452;"/><rect x="294" y="530" width="40" height="20" style="fill:#cb7452;"/><rect x="354" y="530" width="40" height="20" style="fill:#cb7452;"/><rect x="174" y="530" width="40" height="20" style="fill:#cb7452;"/><rect x="414" y="530" width="40" height="20" style="fill:#cb7452;"/><rect x="474" y="530" width="40" height="20" style="fill:#cb7452;"/><rect x="534" y="530" width="40" height="20" style="fill:#cb7452;"/><rect x="654" y="530" width="40" height="20" style="fill:#cb7452;"/><rect x="714" y="530" width="40" height="20" style="fill:#cb7452;"/><rect x="774" y="530" width="40" height="20" style="fill:#cb7452;"/><rect x="594" y="530" width="40" height="20" style="fill:#cb7452;"/><rect x="834" y="530" width="40" height="20" style="fill:#cb7452;"/><rect x="894" y="530" width="40" height="20" style="fill:#cb7452;"/><rect x="954" y="530" width="40" height="20" style="fill:#cb7452;"/><rect x="1074" y="530" width="40" height="20" style="fill:#cb7452;"/><rect x="1134" y="530" width="40" height="20" style="fill:#cb7452;"/><rect x="1194" y="530" width="40" height="20" style="fill:#cb7452;"/><rect x="1254" y="530" width="40" height="20" style="fill:#cb7452;"/><rect x="1014" y="530" width="40" height="20" style="fill:#cb7452;"/></g><g><rect x="-26" y="560" width="40" height="20" style="fill:#cb7452;"/><rect x="34" y="560" width="40" height="20" style="fill:#cb7452;"/><rect x="94" y="560" width="40" height="20" style="fill:#cb7452;"/><rect x="214" y="560" width="40" height="20" style="fill:#cb7452;"/><rect x="274" y="560" width="40" height="20" style="fill:#cb7452;"/><rect x="334" y="560" width="40" height="20" style="fill:#cb7452;"/><rect x="154" y="560" width="40" height="20" style="fill:#cb7452;"/><rect x="394" y="560" width="40" height="20" style="fill:#cb7452;"/><rect x="454" y="560" width="40" height="20" style="fill:#cb7452;"/><rect x="514" y="560" width="40" height="20" style="fill:#cb7452;"/><rect x="634" y="560" width="40" height="20" style="fill:#cb7452;"/><rect x="694" y="560" width="40" height="20" style="fill:#cb7452;"/><rect x="754" y="560" width="40" height="20" style="fill:#cb7452;"/><rect x="574" y="560" width="40" height="20" style="fill:#cb7452;"/><rect x="814" y="560" width="40" height="20" style="fill:#cb7452;"/><rect x="874" y="560" width="40" height="20" style="fill:#cb7452;"/><rect x="934" y="560" width="40" height="20" style="fill:#cb7452;"/><rect x="1054" y="560" width="40" height="20" style="fill:#cb7452;"/><rect x="1114" y="560" width="40" height="20" style="fill:#cb7452;"/><rect x="1174" y="560" width="40" height="20" style="fill:#cb7452;"/><rect x="1234" y="560" width="40" height="20" style="fill:#cb7452;"/><rect x="1294" y="560" width="40" height="20" style="fill:#cb7452;"/><rect x="994" y="560" width="40" height="20" style="fill:#cb7452;"/></g><g><rect x="-6" y="590" width="40" height="20" style="fill:#cb7452;"/><rect x="54" y="590" width="40" height="20" style="fill:#cb7452;"/><rect x="114" y="590" width="40" height="20" style="fill:#cb7452;"/><rect x="234" y="590" width="40" height="20" style="fill:#cb7452;"/><rect x="294" y="590" width="40" height="20" style="fill:#cb7452;"/><rect x="354" y="590" width="40" height="20" style="fill:#cb7452;"/><rect x="174" y="590" width="40" height="20" style="fill:#cb7452;"/><rect x="414" y="590" width="40" height="20" style="fill:#cb7452;"/><rect x="474" y="590" width="40" height="20" style="fill:#cb7452;"/><rect x="534" y="590" width="40" height="20" style="fill:#cb7452;"/><rect x="654" y="590" width="40" height="20" style="fill:#cb7452;"/><rect x="714" y="590" width="40" height="20" style="fill:#cb7452;"/><rect x="774" y="590" width="40" height="20" style="fill:#cb7452;"/><rect x="594" y="590" width="40" height="20" style="fill:#cb7452;"/><rect x="834" y="590" width="40" height="20" style="fill:#cb7452;"/><rect x="894" y="590" width="40" height="20" style="fill:#cb7452;"/><rect x="954" y="590" width="40" height="20" style="fill:#cb7452;"/><rect x="1074" y="590" width="40" height="20" style="fill:#cb7452;"/><rect x="1134" y="590" width="40" height="20" style="fill:#cb7452;"/><rect x="1194" y="590" width="40" height="20" style="fill:#cb7452;"/><rect x="1254" y="590" width="40" height="20" style="fill:#cb7452;"/><rect x="1014" y="590" width="40" height="20" style="fill:#cb7452;"/></g><g><rect x="-26" y="625" width="40" height="20" style="fill:#cb7452;"/><rect x="34" y="625" width="40" height="20" style="fill:#cb7452;"/><rect x="94" y="625" width="40" height="20" style="fill:#cb7452;"/><rect x="214" y="625" width="40" height="20" style="fill:#cb7452;"/><rect x="274" y="625" width="40" height="20" style="fill:#cb7452;"/><rect x="334" y="625" width="40" height="20" style="fill:#cb7452;"/><rect x="154" y="625" width="40" height="20" style="fill:#cb7452;"/><rect x="394" y="625" width="40" height="20" style="fill:#cb7452;"/><rect x="454" y="625" width="40" height="20" style="fill:#cb7452;"/><rect x="514" y="625" width="40" height="20" style="fill:#cb7452;"/><rect x="634" y="625" width="40" height="20" style="fill:#cb7452;"/><rect x="694" y="625" width="40" height="20" style="fill:#cb7452;"/><rect x="754" y="625" width="40" height="20" style="fill:#cb7452;"/><rect x="574" y="625" width="40" height="20" style="fill:#cb7452;"/><rect x="814" y="625" width="40" height="20" style="fill:#cb7452;"/><rect x="874" y="625" width="40" height="20" style="fill:#cb7452;"/><rect x="934" y="625" width="40" height="20" style="fill:#cb7452;"/><rect x="1054" y="625" width="40" height="20" style="fill:#cb7452;"/><rect x="1114" y="625" width="40" height="20" style="fill:#cb7452;"/><rect x="1174" y="625" width="40" height="20" style="fill:#cb7452;"/><rect x="1234" y="625" width="40" height="20" style="fill:#cb7452;"/><rect x="1294" y="625" width="40" height="20" style="fill:#cb7452;"/><rect x="994" y="625" width="40" height="20" style="fill:#cb7452;"/></g><g><rect x="-6" y="655" width="40" height="20" style="fill:#cb7452;"/><rect x="54" y="655" width="40" height="20" style="fill:#cb7452;"/><rect x="114" y="655" width="40" height="20" style="fill:#cb7452;"/><rect x="234" y="655" width="40" height="20" style="fill:#cb7452;"/><rect x="294" y="655" width="40" height="20" style="fill:#cb7452;"/><rect x="354" y="655" width="40" height="20" style="fill:#cb7452;"/><rect x="174" y="655" width="40" height="20" style="fill:#cb7452;"/><rect x="414" y="655" width="40" height="20" style="fill:#cb7452;"/><rect x="474" y="655" width="40" height="20" style="fill:#cb7452;"/><rect x="534" y="655" width="40" height="20" style="fill:#cb7452;"/><rect x="654" y="655" width="40" height="20" style="fill:#cb7452;"/><rect x="714" y="655" width="40" height="20" style="fill:#cb7452;"/><rect x="774" y="655" width="40" height="20" style="fill:#cb7452;"/><rect x="594" y="655" width="40" height="20" style="fill:#cb7452;"/><rect x="834" y="655" width="40" height="20" style="fill:#cb7452;"/><rect x="894" y="655" width="40" height="20" style="fill:#cb7452;"/><rect x="954" y="655" width="40" height="20" style="fill:#cb7452;"/><rect x="1074" y="655" width="40" height="20" style="fill:#cb7452;"/><rect x="1134" y="655" width="40" height="20" style="fill:#cb7452;"/><rect x="1194" y="655" width="40" height="20" style="fill:#cb7452;"/><rect x="1254" y="655" width="40" height="20" style="fill:#cb7452;"/><rect x="1014" y="655" width="40" height="20" style="fill:#cb7452;"/></g><g><rect x="-26" y="685" width="40" height="20" style="fill:#cb7452;"/><rect x="34" y="685" width="40" height="20" style="fill:#cb7452;"/><rect x="94" y="685" width="40" height="20" style="fill:#cb7452;"/><rect x="214" y="685" width="40" height="20" style="fill:#cb7452;"/><rect x="274" y="685" width="40" height="20" style="fill:#cb7452;"/><rect x="334" y="685" width="40" height="20" style="fill:#cb7452;"/><rect x="154" y="685" width="40" height="20" style="fill:#cb7452;"/><rect x="394" y="685" width="40" height="20" style="fill:#cb7452;"/><rect x="454" y="685" width="40" height="20" style="fill:#cb7452;"/><rect x="514" y="685" width="40" height="20" style="fill:#cb7452;"/><rect x="634" y="685" width="40" height="20" style="fill:#cb7452;"/><rect x="694" y="685" width="40" height="20" style="fill:#cb7452;"/><rect x="754" y="685" width="40" height="20" style="fill:#cb7452;"/><rect x="574" y="685" width="40" height="20" style="fill:#cb7452;"/><rect x="814" y="685" width="40" height="20" style="fill:#cb7452;"/><rect x="874" y="685" width="40" height="20" style="fill:#cb7452;"/><rect x="934" y="685" width="40" height="20" style="fill:#cb7452;"/><rect x="1054" y="685" width="40" height="20" style="fill:#cb7452;"/><rect x="1114" y="685" width="40" height="20" style="fill:#cb7452;"/><rect x="1174" y="685" width="40" height="20" style="fill:#cb7452;"/><rect x="1234" y="685" width="40" height="20" style="fill:#cb7452;"/><rect x="1294" y="685" width="40" height="20" style="fill:#cb7452;"/><rect x="994" y="685" width="40" height="20" style="fill:#cb7452;"/></g><g><rect x="-6" y="715" width="40" height="20" style="fill:#cb7452;"/><rect x="54" y="715" width="40" height="20" style="fill:#cb7452;"/><rect x="114" y="715" width="40" height="20" style="fill:#cb7452;"/><rect x="234" y="715" width="40" height="20" style="fill:#cb7452;"/><rect x="294" y="715" width="40" height="20" style="fill:#cb7452;"/><rect x="354" y="715" width="40" height="20" style="fill:#cb7452;"/><rect x="174" y="715" width="40" height="20" style="fill:#cb7452;"/><rect x="414" y="715" width="40" height="20" style="fill:#cb7452;"/><rect x="474" y="715" width="40" height="20" style="fill:#cb7452;"/><rect x="534" y="715" width="40" height="20" style="fill:#cb7452;"/><rect x="654" y="715" width="40" height="20" style="fill:#cb7452;"/><rect x="714" y="715" width="40" height="20" style="fill:#cb7452;"/><rect x="774" y="715" width="40" height="20" style="fill:#cb7452;"/><rect x="594" y="715" width="40" height="20" style="fill:#cb7452;"/><rect x="834" y="715" width="40" height="20" style="fill:#cb7452;"/><rect x="894" y="715" width="40" height="20" style="fill:#cb7452;"/><rect x="954" y="715" width="40" height="20" style="fill:#cb7452;"/><rect x="1074" y="715" width="40" height="20" style="fill:#cb7452;"/><rect x="1134" y="715" width="40" height="20" style="fill:#cb7452;"/><rect x="1194" y="715" width="40" height="20" style="fill:#cb7452;"/><rect x="1254" y="715" width="40" height="20" style="fill:#cb7452;"/><rect x="1014" y="715" width="40" height="20" style="fill:#cb7452;"/></g><g><rect x="-26" y="750" width="40" height="20" style="fill:#cb7452;"/><rect x="34" y="750" width="40" height="20" style="fill:#cb7452;"/><rect x="94" y="750" width="40" height="20" style="fill:#cb7452;"/><rect x="214" y="750" width="40" height="20" style="fill:#cb7452;"/><rect x="274" y="750" width="40" height="20" style="fill:#cb7452;"/><rect x="334" y="750" width="40" height="20" style="fill:#cb7452;"/><rect x="154" y="750" width="40" height="20" style="fill:#cb7452;"/><rect x="394" y="750" width="40" height="20" style="fill:#cb7452;"/><rect x="454" y="750" width="40" height="20" style="fill:#cb7452;"/><rect x="514" y="750" width="40" height="20" style="fill:#cb7452;"/><rect x="634" y="750" width="40" height="20" style="fill:#cb7452;"/><rect x="694" y="750" width="40" height="20" style="fill:#cb7452;"/><rect x="754" y="750" width="40" height="20" style="fill:#cb7452;"/><rect x="574" y="750" width="40" height="20" style="fill:#cb7452;"/><rect x="814" y="750" width="40" height="20" style="fill:#cb7452;"/><rect x="874" y="750" width="40" height="20" style="fill:#cb7452;"/><rect x="934" y="750" width="40" height="20" style="fill:#cb7452;"/><rect x="1054" y="750" width="40" height="20" style="fill:#cb7452;"/><rect x="1114" y="750" width="40" height="20" style="fill:#cb7452;"/><rect x="1174" y="750" width="40" height="20" style="fill:#cb7452;"/><rect x="1234" y="750" width="40" height="20" style="fill:#cb7452;"/><rect x="1294" y="750" width="40" height="20" style="fill:#cb7452;"/><rect x="994" y="750" width="40" height="20" style="fill:#cb7452;"/></g></svg>