<?xml version="1.0" encoding="UTF-8" standalone="no"?>
<!DOCTYPE svg PUBLIC "-//W3C//DTD SVG 1.1//EN" "http://www.w3.org/Graphics/SVG/1.1/DTD/svg11.dtd">
<svg width="100%" height="100%" viewBox="0 0 333 22" version="1.1" xmlns="http://www.w3.org/2000/svg" xmlns:xlink="http://www.w3.org/1999/xlink" xml:space="preserve" xmlns:serif="http://www.serif.com/" style="fill-rule:evenodd;clip-rule:evenodd;stroke-linejoin:round;stroke-miterlimit:2;">
    <g transform="matrix(1,0,0,1,-33.5,-33)">
        <g>
            <g transform="matrix(1,0,0,0.424889,0,28.7555)">
                <g transform="matrix(0.876316,0,0,0.876316,33.5,10.5658)">
                    <path d="M380,13.176C380,5.904 374.096,0 366.824,0C248.942,-0.877 131.06,-0.876 13.176,0C5.904,0 0,5.904 0,13.176L0,31.824C0,39.096 5.904,45 13.176,45L366.824,45C374.096,45 380,39.096 380,31.824L380,13.176Z" style="fill:rgb(212,0,71);"/>
                </g>
                <g transform="matrix(0.876316,0,0,0.666667,33.5,20)">
                    <path d="M380,22.5C380,10.082 372.33,0 362.883,0C247.763,-1.938 132.508,-1.936 17.117,0C7.67,0 0,10.082 0,22.5C0,34.918 7.67,45 17.117,45L362.883,45C372.33,45 380,34.918 380,22.5Z" style="fill:rgb(183,0,61);"/>
                </g>
                <g transform="matrix(0.876316,0,0,0.444444,33.5,30)">
                    <path d="M380,22.5C380,10.082 374.887,0 368.589,0C249.504,-3.061 130.445,-3.059 11.411,0C5.113,0 0,10.082 0,22.5C0,34.918 5.113,45 11.411,45L368.589,45C374.887,45 380,34.918 380,22.5Z" style="fill:rgb(159,0,53);"/>
                </g>
                <g transform="matrix(0.876316,0,0,0.266667,33.5,38)">
                    <path d="M380,22.5C380,10.082 376.932,0 373.153,0C250.893,-5.563 128.791,-5.563 6.847,0C3.068,0 0,10.082 0,22.5C0,34.918 3.068,45 6.847,45C128.857,40.724 250.959,40.724 373.153,45C376.932,45 380,34.918 380,22.5Z" style="fill:rgb(144,0,48);"/>
                </g>
            </g>
            <g transform="matrix(1,0,0,1,5,5)">
                <circle cx="195" cy="45" r="5" style="fill:rgb(148,148,148);"/>
            </g>
            <g transform="matrix(0.332072,0,0,0.332072,135.246,35.0568)">
                <circle cx="195" cy="45" r="5"/>
            </g>
        </g>
    </g>
</svg>
